<svg width="800" height="800" viewBox="0 0 800 800" fill="none" xmlns="http://www.w3.org/2000/svg">
<path d="M610.184 443.067V301.171C610.129 301.162 610.093 301.135 610.048 301.126L609.441 226.957C609.27 205.888 593.36 188.207 578.655 180.697C555.452 168.822 535.869 177.636 519.788 187.817C460.387 225.381 408.805 252.556 350.147 263.045C324.654 267.592 299.524 267.003 277.343 266.487C239.743 265.609 207.156 264.848 190.523 290.156C181.482 291.134 169.546 291.624 158.596 291.642C147.302 291.687 135.33 295.183 126.479 301.506C116.127 308.907 110.389 319.541 110.344 331.47L110 410.648C109.955 421.454 114.091 431.164 121.973 438.755C131.258 447.677 145.076 452.768 158.895 452.025C160.478 451.953 162.288 451.835 164.252 451.708C171.645 451.21 185.41 450.304 189.346 453.212L216.449 473.131L251.218 597.581C255.552 613.107 269.66 624.846 284.022 624.873L342.753 625H342.798C351.658 625 361.866 619.475 368.209 611.223C373.368 604.519 375.196 597.047 373.368 590.18L343.26 477.198C412.172 488.05 468.378 523.657 522.793 558.133C537.797 567.653 556.077 575.905 577.868 565.062C590.284 558.866 608.844 542.399 609.107 522.389L610.111 443.194C610.274 443.157 610.401 443.085 610.564 443.04L610.174 443.076L610.184 443.067ZM177.98 408.374L152.804 408.075L152.524 335.628L177.989 335.429V408.365L177.98 408.374ZM238.775 432.405C228.784 432.405 220.712 422.722 220.703 414.697L220.531 327.295C220.513 320.238 227.372 310.175 233.788 310.12L310.772 309.559L310.727 432.333L238.775 432.405ZM291.633 582.273L261.896 476.084L297.614 474.915L327.016 581.974L291.642 582.273H291.633ZM561.045 525.27C559.325 526.185 552.457 525.895 550.394 524.59C550.394 524.59 550.394 524.59 550.394 524.581C494.594 489.137 431.474 449.027 353.739 435.141L352.771 306.941C432.723 290.201 484.866 260.291 549.443 220.046C551.769 218.597 559.624 218.406 561.47 219.457C563.153 220.472 566.303 226.849 566.303 230.798V515.143C566.303 517.887 562.809 524.228 561.063 525.279L561.045 525.27Z" fill="black"/>
<path d="M660.544 339.224C676.806 339.224 690 352.422 690 368.708C690 384.995 676.815 398.193 660.544 398.193C644.273 398.193 631.088 384.995 631.088 368.708C631.088 352.422 644.273 339.224 660.544 339.224Z" fill="black"/>
</svg>
