<svg width="760" height="760" viewBox="0 0 760 760" fill="none" xmlns="http://www.w3.org/2000/svg">
<g clip-path="url(#clip0_50_852)">
<path d="M655.413 436.37V250.644C655.342 250.632 655.294 250.596 655.235 250.584L654.441 153.506C654.215 125.929 633.369 102.786 614.1 92.9572C583.696 77.4138 558.035 88.9498 536.964 102.276C459.128 151.443 391.538 187.012 314.675 200.741C281.271 206.693 248.341 205.922 219.278 205.247C170.008 204.096 127.307 203.101 105.512 236.227C93.6664 237.507 78.0258 238.147 63.6777 238.171C48.8789 238.23 33.1909 242.807 21.5938 251.082C8.02832 260.769 0.510379 274.688 0.451089 290.302L0.000481337 393.937C-0.0588084 408.081 5.36029 420.791 15.6886 430.726C27.8548 442.405 45.9619 449.068 64.069 448.095C66.1441 448.001 68.5157 447.847 71.0889 447.681C80.7768 447.028 98.8128 445.843 103.971 449.649L139.486 475.72L185.044 638.612C190.724 658.933 209.21 674.298 228.029 674.334L304.987 674.5H305.046C316.655 674.5 330.031 667.268 338.343 656.467C345.102 647.693 347.498 637.912 345.102 628.925L305.651 481.044C395.949 495.247 469.599 541.854 540.901 586.978C560.561 599.439 584.514 610.24 613.068 596.048C629.337 587.938 653.658 566.384 654.002 540.194L655.318 436.536C655.531 436.488 655.697 436.394 655.911 436.334L655.401 436.382L655.413 436.37ZM89.0774 390.961L56.0886 390.57L55.721 295.744L89.0893 295.483V390.949L89.0774 390.961ZM168.739 422.415C155.648 422.415 145.071 409.741 145.059 399.236L144.833 284.837C144.81 275.601 153.798 262.429 162.205 262.357L263.081 261.622L263.022 422.32L168.739 422.415ZM238.001 618.575L199.036 479.585L245.839 478.056L284.366 618.183L238.013 618.575H238.001ZM591.024 543.964C588.771 545.162 579.771 544.782 577.067 543.075C577.067 543.075 577.067 543.075 577.067 543.063C503.951 496.67 421.242 444.171 319.382 425.996L318.114 258.196C422.879 236.286 491.204 197.137 575.822 144.46C578.87 142.563 589.163 142.314 591.582 143.69C593.787 145.017 597.914 153.364 597.914 158.533V530.709C597.914 534.301 593.337 542.601 591.048 543.976L591.024 543.964Z" fill="black"/>
<path d="M721.402 300.451C742.711 300.451 760 317.726 760 339.043C760 360.36 742.723 377.635 721.402 377.635C700.082 377.635 682.805 360.36 682.805 339.043C682.805 317.726 700.082 300.451 721.402 300.451Z" fill="black"/>
</g>
<defs>
<clipPath id="clip0_50_852">
<rect width="760" height="760" fill="white"/>
</clipPath>
</defs>
</svg>
