<svg width="800" height="800" viewBox="0 0 800 800" fill="none" xmlns="http://www.w3.org/2000/svg">
<path d="M366.8 248.5C366.8 230.66 381.26 216.21 399.09 216.21C416.92 216.21 431.38 230.67 431.38 248.5C431.38 266.33 416.92 280.79 399.09 280.79C381.26 280.79 366.8 266.33 366.8 248.5Z" fill="black"/>
<path d="M366.8 551.5C366.8 533.66 381.26 519.21 399.09 519.21C416.92 519.21 431.38 533.67 431.38 551.5C431.38 569.33 416.92 583.79 399.09 583.79C381.26 583.79 366.8 569.33 366.8 551.5Z" fill="black"/>
<path d="M538.84 293.54C556.68 293.54 571.13 308 571.13 325.83C571.13 343.66 556.67 358.12 538.84 358.12C521.01 358.12 506.55 343.66 506.55 325.83C506.55 308 521.01 293.54 538.84 293.54Z" fill="black"/>
<path d="M261.16 293.54C279 293.54 293.45 308 293.45 325.83C293.45 343.66 278.99 358.12 261.16 358.12C243.33 358.12 228.87 343.66 228.87 325.83C228.87 308 243.33 293.54 261.16 293.54Z" fill="black"/>
<path d="M538.84 442.83C556.68 442.83 571.13 457.29 571.13 475.12C571.13 492.95 556.67 507.41 538.84 507.41C521.01 507.41 506.55 492.95 506.55 475.12C506.55 457.29 521.01 442.83 538.84 442.83Z" fill="black"/>
<path d="M399.1 358.12C422.13 358.12 440.8 376.79 440.8 399.82C440.8 422.85 422.13 441.52 399.1 441.52C376.07 441.52 357.4 422.85 357.4 399.82C357.4 376.79 376.07 358.12 399.1 358.12Z" fill="black"/>
<path d="M261.16 442.83C279 442.83 293.45 457.29 293.45 475.12C293.45 492.95 278.99 507.41 261.16 507.41C243.33 507.41 228.87 492.95 228.87 475.12C228.87 457.29 243.33 442.83 261.16 442.83Z" fill="black"/>
</svg>
