<svg width="760" height="760" viewBox="0 0 760 760" fill="none" xmlns="http://www.w3.org/2000/svg">
<path d="M311.322 66.7621C311.322 29.8765 341.234 0 378.118 0C415.001 0 444.913 29.8972 444.913 66.7621C444.913 103.627 415.001 133.524 378.118 133.524C341.234 133.524 311.322 103.627 311.322 66.7621Z" fill="black"/>
<path d="M311.322 693.238C311.322 656.352 341.234 626.476 378.118 626.476C415.001 626.476 444.913 656.373 444.913 693.238C444.913 730.103 415.001 760 378.118 760C341.234 760 311.322 730.103 311.322 693.238Z" fill="black"/>
<path d="M667.205 159.886C704.109 159.886 734 189.783 734 226.648C734 263.513 704.088 293.41 667.205 293.41C630.322 293.41 600.41 263.513 600.41 226.648C600.41 189.783 630.322 159.886 667.205 159.886Z" fill="black"/>
<path d="M92.7952 159.886C129.699 159.886 159.59 189.783 159.59 226.648C159.59 263.513 129.678 293.41 92.7952 293.41C55.912 293.41 26 263.513 26 226.648C26 189.783 55.912 159.886 92.7952 159.886Z" fill="black"/>
<path d="M667.205 468.554C704.109 468.554 734 498.452 734 535.316C734 572.181 704.088 602.078 667.205 602.078C630.322 602.078 600.41 572.181 600.41 535.316C600.41 498.452 630.322 468.554 667.205 468.554Z" fill="black"/>
<path d="M378.138 293.41C425.778 293.41 464.399 332.012 464.399 379.628C464.399 427.244 425.778 465.846 378.138 465.846C330.498 465.846 291.878 427.244 291.878 379.628C291.878 332.012 330.498 293.41 378.138 293.41Z" fill="black"/>
<path d="M92.7952 468.554C129.699 468.554 159.59 498.452 159.59 535.316C159.59 572.181 129.678 602.078 92.7952 602.078C55.912 602.078 26 572.181 26 535.316C26 498.452 55.912 468.554 92.7952 468.554Z" fill="black"/>
</svg>
