<svg width="745" height="156" viewBox="0 0 745 156" fill="none" xmlns="http://www.w3.org/2000/svg">
  <defs>
    <clipPath id="reveal-a">
      <rect class="reveal" x="0" y="0" width="0" height="0" />
    </clipPath>
    <clipPath id="reveal-l">
      <rect class="reveal" x="0" y="0" width="0" height="0" />
    </clipPath>
    <clipPath id="reveal-e">
      <rect class="reveal" x="0" y="0" width="0" height="0" />
    </clipPath>
    <clipPath id="reveal-n-wave">
      <rect class="reveal" x="0" y="0" width="0" height="0" />
    </clipPath>
    <clipPath id="reveal-n">
      <rect class="reveal" x="0" y="0" width="0" height="0" />
    </clipPath>
  </defs>

  <g class="letter" clip-path="url(#reveal-a)">
    <path d="M84.84 50.9699C76.4 46.0799 66.81 43.6099 56.35 43.6099C45.89 43.6099 36.07 46.1699 27.61 51.2099C19.19 56.2299 12.42 63.0399 7.48999 71.4399C2.51999 79.8899 0 89.3399 0 99.5399C0 109.74 2.43999 119.18 7.23999 127.68C12.04 136.18 18.68 143.04 26.96 148.07C35.28 153.13 44.75 155.69 55.11 155.69C65.47 155.69 74.06 153.3 81.91 148.6C86.48 145.86 90.52 142.5 93.99 138.57V153.84H112.69V99.5499C112.69 89.2199 110.14 79.6599 105.1 71.1299C100.07 62.6399 93.25 55.8599 84.83 50.9799L84.84 50.9699ZM74.97 132.07C69.45 135.47 63.19 137.19 56.36 137.19C49.53 137.19 43.1 135.47 37.66 132.08C32.11 128.63 27.57 123.99 24.17 118.31C20.82 112.72 19.13 106.41 19.13 99.5399C19.13 92.6699 20.83 86.5699 24.18 80.9799C27.56 75.3099 32.09 70.7199 37.63 67.3299C43.09 63.9999 49.39 62.3099 56.36 62.3099C63.33 62.3099 69.47 64.0099 75 67.3399C80.59 70.7199 85.11 75.2999 88.43 80.9499C91.72 86.5599 93.39 92.8099 93.39 99.5399C93.39 106.27 91.72 112.73 88.43 118.34C85.1 124.01 80.58 128.63 74.98 132.07H74.97Z" fill="currentColor" />
  </g>

  <g class="letter" clip-path="url(#reveal-l)">
    <path d="M173.58 0H154.26V153.83H173.58V0Z" fill="currentColor" />
  </g>

  <g class="letter" clip-path="url(#reveal-e)">
    <path d="M288 50.3899C280.29 45.7499 271.13 43.3999 260.79 43.3999C250.45 43.3999 241.08 45.9799 233.07 51.0599C225.13 56.1099 218.84 62.9499 214.39 71.4099C209.97 79.8199 207.72 89.2799 207.72 99.5399C207.72 109.8 210.16 119.59 214.96 128.09C219.77 136.6 226.45 143.43 234.82 148.4C243.2 153.37 252.7 155.89 263.04 155.89C272.64 155.89 281.57 153.67 289.58 149.29C297.66 144.88 304.25 138.27 309.15 129.64L311.32 125.84L295.55 117.17L293.44 120.84C290.15 126.57 285.97 130.62 280.68 133.21C275.27 135.85 269.26 137.19 262.83 137.19C255.36 137.19 248.76 135.32 243.21 131.64C237.59 127.92 233.22 122.83 230.22 116.51C228.9 113.74 227.94 110.82 227.34 107.77H312.6V96.4599C312.6 86.3199 310.42 77.1799 306.11 69.2999C301.78 61.3899 295.69 55.0299 287.99 50.3999L288 50.3899ZM243.94 66.4599C248.66 63.7099 254.33 62.3099 260.79 62.3099C267.25 62.3099 272.66 63.6599 277.55 66.3099C282.45 68.9699 286.21 72.6199 289.05 77.4499C291.22 81.1499 292.61 85.3799 293.19 90.0799H227.87C228.85 85.7899 230.42 81.7499 232.55 78.0199C235.37 73.0899 239.2 69.1999 243.94 66.4399V66.4599Z" fill="currentColor" />
  </g>

  <g class="letter" clip-path="url(#reveal-n-wave)">
    <path d="M445.95 155.23C429.87 155.23 420.58 143.37 415.62 133.43L386.43 74.9198C384.43 70.8998 380.9 68.0998 376.99 67.4198C376.56 67.3498 376.06 67.2998 375.52 67.2998C371.04 67.2998 364.41 70.2299 364.37 76.5099L363.97 153.91H344.16L343.68 73.2898C343.59 57.4698 353.44 45.6598 368.19 43.9098C369.81 43.7198 371.47 43.6198 373.12 43.6198C385.55 43.6198 395.61 48.7498 400.02 57.3498L433.28 122.07C434.57 124.58 436.97 129.24 441.65 130.33C442.58 130.55 443.58 130.65 444.63 130.65C451.03 130.65 455.55 126.9 455.61 121.52L456.26 68.1598C456.44 53.5598 469.85 44.2198 482.71 43.6298C483.31 43.5998 483.89 43.5898 484.48 43.5898C501.48 43.5898 510.86 55.0798 515.74 64.7198L545.51 123.5C547.35 127.14 550.63 129.82 554.29 130.68C554.92 130.83 555.61 130.9 556.35 130.9C561.89 130.9 567.64 127.48 567.65 121.77L567.81 44.7798H588.2L587.91 128.1C587.86 140.53 578.39 151.58 565.39 154.37C562.95 154.89 560.47 155.16 558.02 155.16C545.98 155.16 535.64 148.97 530.37 138.61L497.64 74.2198C495.62 70.2398 491.1 68.1498 487.51 67.8498L486.87 67.8198C482.33 67.8198 475.97 71.5398 475.91 77.5898L475.36 130.23C475.22 143.36 463.76 152.41 452.5 154.56C450.27 154.99 448.06 155.2 445.93 155.2L445.95 155.23Z" fill="currentColor" />
  </g>

  <g class="letter" clip-path="url(#reveal-n)">
    <path d="M723.36 71.1199C718.33 62.6299 711.51 55.8499 703.09 50.9699C694.65 46.0799 685.06 43.6099 674.6 43.6099C664.14 43.6099 654.32 46.1699 645.86 51.2099C637.44 56.2299 630.67 63.0399 625.74 71.4399C620.77 79.8899 618.25 89.3399 618.25 99.5399C618.25 109.74 620.69 119.18 625.49 127.68C630.29 136.18 636.93 143.04 645.21 148.07C653.53 153.13 663 155.69 673.36 155.69C683.72 155.69 692.31 153.3 700.16 148.6C704.73 145.86 708.77 142.5 712.24 138.57V153.84H730.94V99.5499C730.94 89.2199 728.39 79.6599 723.35 71.1299L723.36 71.1199ZM693.22 132.07C687.7 135.47 681.44 137.19 674.61 137.19C667.78 137.19 661.35 135.47 655.91 132.08C650.36 128.63 645.82 123.99 642.42 118.31C639.07 112.72 637.38 106.41 637.38 99.5399C637.38 92.6699 639.08 86.5699 642.43 80.9799C645.81 75.3099 650.34 70.7199 655.88 67.3299C661.34 63.9999 667.64 62.3099 674.61 62.3099C681.58 62.3099 687.72 64.0099 693.25 67.3399C698.84 70.7199 703.36 75.2999 706.68 80.9499C709.97 86.5599 711.64 92.8099 711.64 99.5399C711.64 106.27 709.97 112.73 706.68 118.34C703.35 124.01 698.83 128.63 693.23 132.07H693.22Z" fill="currentColor" />
    <path d="M735 62.0301C740.153 62.0301 744.33 57.8529 744.33 52.7001C744.33 47.5473 740.153 43.3701 735 43.3701C729.847 43.3701 725.67 47.5473 725.67 52.7001C725.67 57.8529 729.847 62.0301 735 62.0301Z" fill="currentColor" />
  </g>
</svg>
