<svg width="760" height="760" viewBox="0 0 760 760" fill="none" xmlns="http://www.w3.org/2000/svg">
<path d="M163.721 678.206C163.975 670.052 163.339 664.032 161.318 658.294C119.013 662.831 71.5935 633.819 71.537 587.608L71.0001 176.561C70.9435 130.845 113.347 100.222 156.218 101.465C158.648 101.536 161.276 101.338 162.336 101.07C163.904 100.674 164.526 95.3604 164.201 92.9438C157.828 46.4931 191.938 0.325062 241.605 0.282667L609.618 1.64338e-05C654.749 -0.0282469 687.827 36.4031 687.912 80.9461L689 676.256C689.085 719.174 660.486 759.633 614.578 759.661L240.842 760C195.668 760.042 162.378 723.06 163.735 678.192L163.721 678.206ZM219.195 658.591L219.816 684.692C220.042 694.344 229.721 704.604 240.856 704.59L612.345 704.434C625.542 704.434 633.215 687.999 633.187 676.058L631.76 74.9401C631.731 65.8535 617.743 55.707 609.858 55.6928L243.597 55.4809C232.251 55.4809 221.582 64.9632 220.777 75.4065C220.099 84.154 220.24 91.7709 220.636 101.423L512.786 102.115C548.125 102.2 586.841 132.484 586.911 169.763L587.731 587.382C587.801 625.212 552.83 657.602 515.527 657.715L219.209 658.577L219.195 658.591ZM510.37 602.701C523.68 602.701 532.765 592.342 532.78 579.44L532.893 182.948C532.893 168.689 522.338 157.102 507.953 157.087L151.541 156.904C139.021 156.904 127.873 167.093 127.845 180.08L127.237 581.659C127.223 593.784 139.897 602.588 151.668 602.588L510.37 602.715V602.701Z" fill="black"/>
<path d="M353.033 483.09C352.454 497.519 345.459 508.118 332.658 509.531C319.927 510.93 309.061 502.154 307.549 487.669L286.213 487.528C272.973 487.443 263.591 477.353 263.492 465.581C263.393 453.174 272.931 443.267 286.213 443.183L330.934 442.886C343.156 442.801 351.648 432.273 352.115 421.844C352.623 410.129 343.891 398.922 330.948 398.767C298.308 398.371 271.15 376.029 264.82 345.434C258.038 312.62 275.94 281.248 307.619 268.968C307.054 255.034 315.292 244.562 326.977 243.135C340.062 241.524 350.603 249.975 352.708 264.686L373.931 265.025C386.804 265.223 396.158 274.634 396.61 286.321C397.09 298.757 387.454 309.412 373.931 309.469L329.916 309.624C317.072 309.667 307.888 320.251 307.959 332.023C308.029 343.385 317.185 353.772 330.03 353.927C362.345 354.337 388.866 376.834 395.197 406.822C401.908 438.675 385.376 470.725 352.991 483.076L353.033 483.09Z" fill="black"/>
</svg>
