<svg width="800" height="800" viewBox="0 0 800 800" fill="none" xmlns="http://www.w3.org/2000/svg">
<path d="M257.564 596.188C257.731 590.824 257.312 586.863 255.982 583.088C228.121 586.073 196.891 566.986 196.854 536.584L196.5 266.158C196.463 236.082 224.389 215.935 252.622 216.753C254.223 216.8 255.954 216.67 256.652 216.493C257.684 216.233 258.094 212.737 257.88 211.147C253.683 180.588 276.147 150.214 308.856 150.186L551.221 150C580.943 149.981 602.727 173.949 602.783 203.254L603.5 594.905C603.556 623.141 584.721 649.758 554.487 649.777L308.354 650C278.603 650.028 256.679 625.697 257.573 596.179L257.564 596.188ZM294.097 583.284L294.507 600.455C294.656 606.805 301.03 613.555 308.363 613.546L553.017 613.444C561.708 613.444 566.761 602.631 566.743 594.775L565.803 199.303C565.784 193.325 556.572 186.649 551.379 186.64L310.168 186.501C302.696 186.501 295.67 192.739 295.14 199.61C294.693 205.364 294.786 210.376 295.047 216.726L487.449 217.181C510.723 217.237 536.22 237.161 536.267 261.687L536.807 536.435C536.853 561.324 513.822 582.633 489.255 582.707L294.107 583.274L294.097 583.284ZM485.858 546.514C494.624 546.514 500.608 539.699 500.617 531.21L500.691 270.361C500.691 260.98 493.74 253.356 484.267 253.347L249.542 253.226C241.297 253.226 233.955 259.929 233.937 268.473L233.536 532.67C233.527 540.647 241.874 546.439 249.626 546.439L485.858 546.523V546.514Z" fill="black"/>
<path d="M382.24 467.823C381.859 477.315 377.252 484.288 368.821 485.218C360.437 486.138 353.281 480.364 352.285 470.835L338.234 470.742C329.515 470.686 323.336 464.048 323.27 456.303C323.205 448.141 329.487 441.623 338.234 441.567L367.686 441.372C375.736 441.316 381.328 434.39 381.635 427.529C381.97 419.821 376.219 412.449 367.696 412.347C346.2 412.086 328.314 397.388 324.145 377.259C319.679 355.671 331.469 335.032 352.332 326.952C351.96 317.785 357.385 310.896 365.081 309.957C373.698 308.897 380.64 314.457 382.026 324.135L396.003 324.358C404.481 324.489 410.641 330.681 410.939 338.369C411.255 346.551 404.909 353.561 396.003 353.598L367.016 353.7C358.557 353.728 352.509 360.692 352.555 368.436C352.602 375.911 358.632 382.744 367.091 382.847C388.373 383.116 405.839 397.917 410.008 417.646C414.428 438.602 403.541 459.688 382.212 467.813L382.24 467.823Z" fill="black"/>
</svg>
