<svg width="800" height="800" viewBox="0 0 800 800" fill="none" xmlns="http://www.w3.org/2000/svg">
<path d="M516.403 218.745C538.793 217.375 559.893 217.635 582.243 217.915H583.223C590.113 225.665 599.753 230.045 610.003 230.045C629.873 230.045 646.053 213.865 646.053 193.985C646.053 174.105 629.883 157.935 610.003 157.935C598.423 157.935 587.693 163.445 580.903 172.795C575.303 172.875 569.783 172.915 564.273 172.955C547.293 173.085 529.733 173.225 511.093 174.705C464.363 178.405 423.993 223.405 422.923 272.965C421.653 331.985 384.973 373.475 331.303 377.155C320.033 334.535 279.653 305.745 235.963 310.105C191.063 314.445 155.053 352.675 153.973 397.155C152.873 442.705 185.583 482.335 230.053 489.345C275.503 496.455 317.463 468.985 330.983 423.665C392.993 427.545 421.893 480.265 422.983 531.495C424.193 588.155 475.433 626.495 522.533 626.745L580.793 627.055C587.583 636.485 598.343 642.065 609.983 642.065C629.853 642.065 646.033 625.895 646.033 606.015C646.033 586.135 629.863 569.965 609.983 569.965C599.403 569.965 589.543 574.575 582.653 582.695H581.873C560.653 582.995 540.593 583.215 517.983 581.975C486.093 580.245 466.083 548.995 465.813 521.045C465.463 483.205 454.283 453.605 428.683 423.495L582.473 423.115C589.373 431.355 599.293 436.035 609.983 436.035C629.853 436.035 646.033 419.855 646.033 399.975C646.033 380.095 629.863 363.925 609.983 363.925C598.533 363.925 587.863 369.335 581.063 378.505L427.993 378.165C454.423 348.035 466.263 316.775 467.273 275.225C467.893 249.865 488.213 220.415 516.393 218.705L516.403 218.745ZM290.213 400.025C290.213 425.335 269.613 445.935 244.303 445.935C218.993 445.935 198.383 425.335 198.383 400.025C198.383 374.715 218.983 354.105 244.303 354.105C269.623 354.105 290.213 374.705 290.213 400.025Z" fill="black"/>
</svg>
