<svg width="800" height="800" viewBox="0 0 800 800" fill="none" xmlns="http://www.w3.org/2000/svg">
<path d="M319.609 256.64C319.609 238.8 334.069 224.35 351.899 224.35C369.729 224.35 384.189 238.81 384.189 256.64C384.189 274.47 369.729 288.93 351.899 288.93C334.069 288.93 319.609 274.47 319.609 256.64Z" fill="black"/>
<path d="M406.309 256.64C406.309 238.8 420.769 224.35 438.599 224.35C456.429 224.35 470.889 238.81 470.889 256.64C470.889 274.47 456.429 288.93 438.599 288.93C420.769 288.93 406.309 274.47 406.309 256.64Z" fill="black"/>
<path d="M319.609 349.29C319.609 331.45 334.069 317 351.899 317C369.729 317 384.189 331.46 384.189 349.29C384.189 367.12 369.729 381.58 351.899 381.58C334.069 381.58 319.609 367.12 319.609 349.29Z" fill="black"/>
<path d="M406.309 349.29C406.309 331.45 420.769 317 438.599 317C456.429 317 470.889 331.46 470.889 349.29C470.889 367.12 456.429 381.58 438.599 381.58C420.769 381.58 406.309 367.12 406.309 349.29Z" fill="black"/>
<path d="M319.609 441.94C319.609 424.1 334.069 409.65 351.899 409.65C369.729 409.65 384.189 424.11 384.189 441.94C384.189 459.77 369.729 474.23 351.899 474.23C334.069 474.23 319.609 459.77 319.609 441.94Z" fill="black"/>
<path d="M406.309 441.94C406.309 424.1 420.769 409.65 438.599 409.65C456.429 409.65 470.889 424.11 470.889 441.94C470.889 459.77 456.429 474.23 438.599 474.23C420.769 474.23 406.309 459.77 406.309 441.94Z" fill="black"/>
<path d="M653.679 356.88C653.679 327.44 631.989 301.77 602.129 301.25L537.069 300.2L536.019 204.44C535.699 173.11 508.049 152.16 478.919 152.16L308.779 152.58C275.669 152.58 252.939 180.55 253.139 211.15L253.659 269.4L196.769 271.18C172.569 271.91 146.579 296.22 146.479 322.31L146.059 606.97L115.989 611.27C109.069 612.32 106.029 630.34 108.869 636.63C111.589 642.71 121.329 647.84 131.079 647.84H670.759C684.999 647.84 692.969 637.47 692.129 626.05C690.239 599.96 657.759 613.16 653.569 604.68L653.679 356.88ZM185.869 608.13L185.449 330.07C185.449 323.89 193.099 310.69 199.489 310.69L254.189 311.11L254.289 607.93L185.869 608.14V608.13ZM411.649 608.65H378.439V546.94H411.649V608.65ZM452.719 608.13L452.199 528.08C452.199 519.8 442.239 507.13 432.399 507.02L368.279 506.6C350.049 506.5 338.419 518.34 338.209 536.15L337.689 607.92L294.519 607.5L294.419 211.88C294.419 200.35 303.539 192.6 314.319 192.6L479.969 192.7C486.469 192.7 495.999 200.77 495.999 208.1L496.099 607.18L452.719 608.12V608.13ZM613.759 607.82L537.279 608.03L537.179 522.81C542.199 526.02 548.129 527.94 554.529 527.94C572.359 527.94 586.819 513.48 586.819 495.65C586.819 477.82 572.359 463.36 554.529 463.36C548.039 463.36 542.039 465.31 536.979 468.6L536.959 465.75H536.759L536.489 435.74C541.639 439.22 547.849 441.25 554.529 441.25C572.359 441.25 586.819 426.79 586.819 408.96C586.819 391.13 572.359 376.67 554.529 376.67C547.969 376.67 541.879 378.65 536.779 382.02L536.649 340.98L595.419 340.46C605.689 340.36 613.969 350.1 613.969 360.68L613.759 607.84V607.82Z" fill="black"/>
</svg>
