<svg width="760" height="760" viewBox="0 0 760 760" fill="none" xmlns="http://www.w3.org/2000/svg">
<g clip-path="url(#clip0_50_880)">
<path d="M275.45 193.454C275.45 170.24 294.255 151.437 317.444 151.437C340.632 151.437 359.438 170.253 359.438 193.454C359.438 216.655 340.632 235.471 317.444 235.471C294.255 235.471 275.45 216.655 275.45 193.454Z" fill="black"/>
<path d="M388.205 193.454C388.205 170.24 407.011 151.437 430.199 151.437C453.388 151.437 472.193 170.253 472.193 193.454C472.193 216.655 453.388 235.471 430.199 235.471C407.011 235.471 388.205 216.655 388.205 193.454Z" fill="black"/>
<path d="M275.45 314.014C275.45 290.8 294.255 271.997 317.444 271.997C340.632 271.997 359.438 290.813 359.438 314.014C359.438 337.215 340.632 356.031 317.444 356.031C294.255 356.031 275.45 337.215 275.45 314.014Z" fill="black"/>
<path d="M388.205 314.014C388.205 290.8 407.011 271.997 430.199 271.997C453.388 271.997 472.193 290.813 472.193 314.014C472.193 337.215 453.388 356.031 430.199 356.031C407.011 356.031 388.205 337.215 388.205 314.014Z" fill="black"/>
<path d="M275.45 434.574C275.45 411.36 294.255 392.557 317.444 392.557C340.632 392.557 359.438 411.373 359.438 434.574C359.438 457.775 340.632 476.591 317.444 476.591C294.255 476.591 275.45 457.775 275.45 434.574Z" fill="black"/>
<path d="M388.205 434.574C388.205 411.36 407.011 392.557 430.199 392.557C453.388 392.557 472.193 411.373 472.193 434.574C472.193 457.775 453.388 476.591 430.199 476.591C407.011 476.591 388.205 457.775 388.205 434.574Z" fill="black"/>
<path d="M709.916 323.89C709.916 285.582 681.708 252.179 642.874 251.502L558.262 250.136L556.897 125.529C556.48 84.761 520.521 57.5 482.636 57.5L261.365 58.0465C218.305 58.0465 188.744 94.4423 189.004 134.26L189.68 210.058L115.693 212.374C84.2205 213.324 50.4199 244.957 50.2898 278.906L49.7436 649.318L10.6368 654.914C1.63716 656.28 -2.31645 679.728 1.37704 687.913C4.91447 695.825 17.5816 702.5 30.2617 702.5H732.129C750.649 702.5 761.014 689.006 759.922 674.146C757.464 640.196 715.222 657.373 709.773 646.338L709.916 323.89ZM101.518 650.828L100.971 289.004C100.971 280.962 110.92 263.786 119.231 263.786L190.369 264.333L190.499 650.567L101.518 650.841V650.828ZM395.15 651.504H351.96V571.205H395.15V651.504ZM448.563 650.828L447.886 546.663C447.886 535.889 434.933 519.402 422.136 519.259L338.746 518.712C315.038 518.582 299.913 533.989 299.64 557.164L298.963 650.554L242.82 650.008L242.69 135.21C242.69 120.207 254.55 110.122 268.57 110.122L484.002 110.252C492.455 110.252 504.849 120.753 504.849 130.292L504.979 649.591L448.563 650.815V650.828ZM657.999 650.424L558.535 650.698L558.405 539.806C564.934 543.983 572.646 546.481 580.969 546.481C604.158 546.481 622.963 527.665 622.963 504.464C622.963 481.263 604.158 462.447 580.969 462.447C572.529 462.447 564.726 464.984 558.145 469.265L558.119 465.557H557.859L557.508 426.506C564.205 431.035 572.282 433.676 580.969 433.676C604.158 433.676 622.963 414.86 622.963 391.659C622.963 368.458 604.158 349.642 580.969 349.642C572.438 349.642 564.518 352.218 557.885 356.604L557.716 303.201L634.148 302.524C647.504 302.394 658.272 315.068 658.272 328.835L657.999 650.45V650.424Z" fill="black"/>
</g>
<defs>
<clipPath id="clip0_50_880">
<rect width="760" height="760" fill="white"/>
</clipPath>
</defs>
</svg>
