<svg width="800" height="800" viewBox="0 0 800 800" fill="none" xmlns="http://www.w3.org/2000/svg">
<path d="M531.451 611.175L275.471 611.785C225.171 611.905 186.091 577.175 186.371 524.605L187.681 275.375C187.931 228.505 222.721 188.145 270.831 188.215L533.661 188.585C577.661 188.645 612.951 229.725 613.051 275.415L613.631 521.665C613.741 568.365 581.071 611.065 531.431 611.175H531.451ZM532.491 565.255C550.221 561.005 565.781 546.495 565.811 527.745L566.221 272.145C566.251 254.155 551.491 234.735 532.581 234.735L269.341 234.715C250.931 234.715 235.111 252.015 235.081 270.135L234.661 527.295C234.621 551.815 254.641 565.725 276.861 565.685L532.501 565.265L532.491 565.255Z" fill="black"/>
<path d="M494.191 374.085C490.421 384.235 480.901 389.075 471.861 388.505C462.891 387.945 452.651 381.485 451.771 371.135L450.381 354.825L289.391 354.375C278.601 354.345 271.141 342.375 270.991 334.285C270.801 323.765 278.491 313.485 290.091 313.485L450.281 313.405L451.151 296.775C451.781 284.725 462.391 276.645 473.191 276.515C484.411 276.375 494.161 284.635 495.161 296.825L496.401 311.945C512.961 310.895 528.431 316.645 529.031 332.695C529.371 341.875 523.681 350.745 513.741 353.695C509.351 355.005 502.791 354.775 497.681 354.935C496.841 361.065 496.351 368.235 494.191 374.075V374.085Z" fill="black"/>
<path d="M375.191 524.145C354.871 522.965 353.931 502.595 354.271 488.895L287.411 488.255C276.651 488.155 270.281 476.645 270.771 467.615C271.301 457.975 279.081 447.795 290.371 447.745L354.251 447.475C354.481 444.305 354.731 440.645 354.621 437.645C354.101 423.655 362.901 413.185 375.511 412.315C389.411 411.355 399.741 421.635 400.031 435.975L400.261 447.435L423.521 447.565C435.641 447.575 444.521 456.055 444.841 467.525C445.121 477.355 437.011 488.745 425.041 488.775L400.581 488.995L399.581 504.745C398.781 517.425 388.351 524.925 375.171 524.155L375.191 524.145Z" fill="black"/>
<path d="M471.561 468.215C471.561 451.345 485.241 437.665 502.111 437.665C518.981 437.665 532.661 451.345 532.661 468.215C532.661 485.085 518.981 498.765 502.111 498.765C485.241 498.765 471.561 485.085 471.561 468.215Z" fill="black"/>
</svg>
