<svg width="760" height="760" viewBox="0 0 760 760" fill="none" xmlns="http://www.w3.org/2000/svg">
<g clip-path="url(#clip0_50_856)">
<path d="M613.82 755.415L158.491 756.499C69.0189 756.713 -0.495396 694.972 0.00265956 601.516L2.3329 158.448C2.77759 75.1255 64.661 3.37572 150.238 3.50016L617.751 4.15792C696.017 4.26458 758.79 77.2944 758.968 158.52L760 596.289C760.195 679.31 702.083 755.22 613.785 755.415H613.82ZM615.67 673.781C647.208 666.226 674.885 640.431 674.939 607.098L675.668 152.706C675.721 120.725 649.467 86.2008 615.83 86.2008L147.587 86.1653C114.84 86.1653 86.6999 116.92 86.6465 149.133L85.8994 606.298C85.8283 649.888 121.439 674.617 160.964 674.545L615.688 673.799L615.67 673.781Z" fill="black"/>
<path d="M547.543 333.93C540.837 351.974 523.903 360.578 507.823 359.565C491.868 358.569 473.653 347.085 472.088 328.685L469.615 299.69L183.251 298.89C164.059 298.837 150.789 277.557 150.522 263.175C150.184 244.474 163.863 226.198 184.497 226.198L469.438 226.056L470.985 196.492C472.106 175.07 490.978 160.706 510.189 160.475C530.147 160.226 547.49 174.91 549.269 196.581L551.474 223.461C580.931 221.594 608.448 231.816 609.516 260.349C610.12 276.668 599.999 292.437 582.318 297.681C574.509 300.01 562.841 299.601 553.751 299.886C552.257 310.783 551.385 323.53 547.543 333.912V333.93Z" fill="black"/>
<path d="M335.87 600.698C299.725 598.6 298.053 562.388 298.658 538.033L179.729 536.895C160.59 536.717 149.259 516.255 150.131 500.202C151.074 483.065 164.912 464.967 184.995 464.878L298.622 464.398C299.032 458.763 299.476 452.256 299.281 446.923C298.356 422.052 314.009 403.439 336.439 401.893C361.164 400.186 379.539 418.461 380.055 443.954L380.464 464.327L421.838 464.558C443.396 464.576 459.192 479.651 459.761 500.042C460.259 517.517 445.833 537.766 424.542 537.819L381.033 538.21L379.254 566.21C377.831 588.752 359.278 602.085 335.834 600.716L335.87 600.698Z" fill="black"/>
<path d="M507.29 501.269C507.29 471.278 531.623 446.959 561.631 446.959C591.639 446.959 615.973 471.278 615.973 501.269C615.973 531.259 591.639 555.579 561.631 555.579C531.623 555.579 507.29 531.259 507.29 501.269Z" fill="black"/>
</g>
<defs>
<clipPath id="clip0_50_856">
<rect width="760" height="760" fill="white"/>
</clipPath>
</defs>
</svg>
