<svg width="20" height="20" viewBox="0 0 20 20" fill="none" xmlns="http://www.w3.org/2000/svg">
<path d="M2 5.08243C2 5.68025 2.48823 6.16487 3.09049 6.16487C3.69276 6.16487 4.18099 5.68025 4.18099 5.08243C4.18099 4.48462 3.69276 4 3.09049 4C2.48823 4 2 4.48462 2 5.08243Z" fill="black"/>
<path d="M17.9788 15.1295C17.9724 15.1614 17.9605 15.1906 17.9515 15.2209C17.9404 15.2579 17.9318 15.2956 17.9169 15.3315C17.902 15.3674 17.8815 15.3996 17.8628 15.4333C17.8472 15.4614 17.8345 15.491 17.8166 15.518C17.7771 15.5764 17.7328 15.6308 17.6828 15.6804C17.6821 15.6811 17.6813 15.6822 17.6806 15.683C17.6799 15.6837 17.6791 15.6841 17.6784 15.6848C17.6284 15.7344 17.5733 15.7788 17.5144 15.8176C17.4868 15.8357 17.457 15.8483 17.4283 15.8639C17.3947 15.882 17.3623 15.9023 17.3265 15.9171C17.29 15.9323 17.2516 15.9408 17.214 15.9519C17.1834 15.9608 17.1547 15.9723 17.1231 15.9785C17.0522 15.9926 16.9811 16 16.9091 16H11.8931C11.2908 16 10.8026 15.5154 10.8026 14.9176C10.8026 14.3197 11.2908 13.8351 11.8931 13.8351H14.2764L11.7761 11.3532C11.0031 10.586 10.3852 9.73364 9.78738 8.90943C8.59515 7.26543 7.80616 6.25772 6.65864 6.25772C6.05638 6.25772 5.56815 5.7731 5.56815 5.17528C5.56815 4.57747 6.05638 4.09285 6.65864 4.09285C8.982 4.09285 10.2913 5.89814 11.5577 7.64461C12.1048 8.39891 12.6705 9.17911 13.3186 9.82243L15.819 12.3043V9.93822C15.819 9.3404 16.3072 8.85578 16.9095 8.85578C17.5118 8.85578 18 9.3404 18 9.93822V14.9176C18 14.9886 17.9925 15.0596 17.9788 15.1295Z" fill="black"/>
</svg>
