<svg width="760" height="760" viewBox="0 0 760 760" fill="none" xmlns="http://www.w3.org/2000/svg">
<path d="M323.444 703.353C323.444 672.072 348.773 646.705 380.009 646.705C411.244 646.705 436.573 672.072 436.573 703.353C436.573 734.634 411.244 760 380.009 760C348.773 760 323.444 734.634 323.444 703.353Z" fill="black"/>
<path d="M419.909 568.957C396.635 592.45 364.252 590.614 343.404 569.736L162.842 388.835C141.531 367.474 137.031 339.716 155.898 319.746C177.895 296.438 207.019 300.573 229.664 322.638L330.943 421.358L331.443 54.2913C331.48 25.2908 348.014 2.33517 373.602 0.202786C406.245 -2.50442 424.89 22.2313 425.001 54.2356L426.26 426.68C491.045 381.084 542.037 266.492 600.49 317.02C622.708 336.23 620.431 366.565 597.657 389.558L419.909 568.957Z" fill="black"/>
</svg>
