<svg width="800" height="800" viewBox="0 0 800 800" fill="none" xmlns="http://www.w3.org/2000/svg">
<path d="M366.57 590.855C366.57 572.392 381.542 557.42 400.005 557.42C418.468 557.42 433.441 572.392 433.441 590.855C433.441 609.318 418.468 624.29 400.005 624.29C381.542 624.29 366.57 609.318 366.57 590.855Z" fill="black"/>
<path d="M423.59 511.529C409.833 525.396 390.691 524.313 378.368 511.989L271.637 405.215C259.04 392.607 256.381 376.223 267.533 364.436C280.535 350.678 297.751 353.119 311.136 366.143L371.002 424.411L371.298 207.754C371.32 190.637 381.093 177.088 396.218 175.829C415.513 174.232 426.535 188.831 426.6 207.722L427.344 427.552C465.639 400.64 495.78 333.003 530.332 362.827C543.465 374.165 542.119 392.07 528.657 405.642L423.59 511.529Z" fill="black"/>
</svg>
