<svg width="800" height="800" viewBox="0 0 800 800" fill="none" xmlns="http://www.w3.org/2000/svg">
<path d="M185.345 532.93C185.345 516.77 198.445 503.67 214.605 503.67C230.765 503.67 243.865 516.77 243.865 532.93C243.865 549.09 230.765 562.19 214.605 562.19C198.445 562.19 185.345 549.09 185.345 532.93Z" fill="black"/>
<path d="M614.085 261.34C613.915 260.48 613.595 259.69 613.355 258.87C613.055 257.87 612.825 256.85 612.425 255.88C612.025 254.91 611.475 254.04 610.975 253.13C610.555 252.37 610.215 251.57 609.735 250.84C608.675 249.26 607.485 247.79 606.145 246.45C606.125 246.43 606.105 246.4 606.085 246.38C606.065 246.36 606.045 246.35 606.025 246.33C604.685 244.99 603.205 243.79 601.625 242.74C600.885 242.25 600.085 241.91 599.315 241.49C598.415 241 597.545 240.45 596.585 240.05C595.605 239.64 594.575 239.41 593.565 239.11C592.745 238.87 591.975 238.56 591.125 238.39C589.225 238.01 587.315 237.81 585.385 237.81H450.795C434.635 237.81 421.535 250.91 421.535 267.07C421.535 283.23 434.635 296.33 450.795 296.33H514.745L447.655 363.42C426.915 384.16 410.335 407.2 394.295 429.48C362.305 473.92 341.135 501.16 310.345 501.16C294.185 501.16 281.085 514.26 281.085 530.42C281.085 546.58 294.185 559.68 310.345 559.68C372.685 559.68 407.815 510.88 441.795 463.67C456.475 443.28 471.655 422.19 489.045 404.8L556.135 337.71V401.67C556.135 417.83 569.235 430.93 585.395 430.93C601.555 430.93 614.655 417.83 614.655 401.67V267.07C614.655 265.15 614.455 263.23 614.085 261.34Z" fill="black"/>
</svg>
