<svg width="800" height="800" viewBox="0 0 800 800" fill="none" xmlns="http://www.w3.org/2000/svg">
<path d="M640.615 372.544L569.975 308.554L502.925 248.684L442.635 195.994C416.555 173.184 381.815 174.244 355.945 197.364L160.815 371.904C150.995 380.664 150.785 395.664 157.015 405.054C163.245 414.244 179.185 418.144 189.325 411.494L206.325 400.404V558.474C206.325 591.634 231.355 618.974 265.665 619.394L347.075 620.554C360.275 620.764 371.045 609.994 371.145 597.114L371.885 471.574L426.895 471.364L427.955 595.854C428.055 608.204 438.405 619.184 449.595 619.184L532.165 619.604C559.305 619.814 591.825 599.434 591.925 569.024L592.985 399.134L614.735 412.964C623.915 418.774 640.705 410.644 644.725 402.404C648.735 394.064 648.215 379.384 640.605 372.524L640.615 372.544ZM532.075 572.104L477.585 571.574L476.845 471.374C476.635 448.464 459.215 427.134 434.185 424.074C409.155 421.014 385.505 421.544 362.495 425.234C337.575 429.244 322.155 452.684 322.055 476.864L321.845 571.784H269.475C262.715 570.834 254.585 563.124 254.585 555.104L254.795 357.024L389.425 233.804C397.245 229.374 406.535 229.894 412.335 236.554L544.325 354.704L544.435 554.474C544.435 561.334 537.575 569.154 532.085 572.104H532.075Z" fill="black"/>
<path d="M544.425 237.704C544.425 220.834 558.105 207.154 574.975 207.154C591.845 207.154 605.525 220.834 605.525 237.704C605.525 254.574 591.845 268.254 574.975 268.254C558.105 268.254 544.425 254.574 544.425 237.704Z" fill="black"/>
</svg>
