<svg width="800" height="800" viewBox="0 0 800 800" fill="none" xmlns="http://www.w3.org/2000/svg">
<path d="M636.084 219.55C623.225 206.713 605.511 199.65 586.178 199.65H585.996L383.891 200.198C344.608 200.399 320.299 235.67 320.299 268.259L320.464 333.838C313.617 339.838 309.728 348.312 309.728 357.326C309.728 374.639 323.796 388.722 341.093 388.722C358.39 388.722 372.458 374.639 372.458 357.326C372.458 347.232 367.647 337.879 359.503 331.974L359.747 261.614C359.825 251.355 372.946 238.762 383.552 238.762L589.476 238.579C604.562 238.579 616.387 250.449 616.387 265.603V536.601C616.387 552.721 603.031 561.16 589.841 561.16L553.586 561.116C547.731 552.364 538.169 547.199 527.658 547.199C510.371 547.199 496.293 561.291 496.293 578.604C496.293 595.918 510.362 610 527.658 610C536.107 610 544.224 606.49 550.158 600.316L595.714 599.837C628.959 599.375 656 569.582 656 533.422L655.904 269.078C655.904 249.9 648.866 232.308 636.084 219.55Z" fill="black"/>
<path d="M460.047 396.882C442.75 396.882 428.681 410.965 428.681 428.278C428.681 438.746 434.049 448.579 442.82 454.379L443.081 531.88C443.124 540.737 440.401 548.166 435.215 553.392C430.169 558.46 422.852 561.256 414.63 561.256L212.073 561.169C194.724 561.169 183.074 549.908 183.074 533.143L183.248 265.612C183.248 251.651 195.255 238.849 208.436 238.77L244.717 238.683C250.521 247.436 260.326 252.792 270.767 252.792C288.055 252.792 302.132 238.709 302.132 221.396C302.132 204.082 288.063 190 270.767 190C262.153 190 253.931 193.623 247.971 200.007L208.245 200.102C174.017 200.198 144 230.68 144 265.333L144.096 536.531C144.191 576.549 178.741 600.464 212.082 600.464H414.36C452.364 600.464 481.163 572.9 481.346 536.357L481.981 450.556C488.01 444.642 491.421 436.639 491.421 428.269C491.421 410.956 477.352 396.873 460.055 396.873L460.047 396.882Z" fill="black"/>
</svg>
