<svg width="760" height="760" viewBox="0 0 760 760" fill="none" xmlns="http://www.w3.org/2000/svg">
<g clip-path="url(#clip0_50_884)">
<path d="M730.438 112.762C711.35 93.7505 685.055 83.2906 656.358 83.2906H656.087L356.088 84.1031C297.778 84.3997 261.694 136.635 261.694 184.898L261.939 282.017C251.775 290.903 246.002 303.453 246.002 316.802C246.002 342.442 266.885 363.298 292.56 363.298C318.235 363.298 339.118 342.442 339.118 316.802C339.118 301.853 331.976 288.001 319.888 279.257L320.249 175.057C320.366 159.864 339.841 141.214 355.584 141.214L661.253 140.943C683.647 140.943 701.199 158.522 701.199 180.964V582.299C701.199 606.172 681.374 618.67 661.796 618.67L607.979 618.606C599.288 605.644 585.094 597.995 569.493 597.995C543.831 597.995 522.935 618.864 522.935 644.504C522.935 670.145 543.818 691 569.493 691C582.033 691 594.083 685.802 602.891 676.658L670.513 675.949C719.861 675.265 760 631.142 760 577.591L759.858 186.11C759.858 157.71 749.41 131.657 730.438 112.762Z" fill="black"/>
<path d="M469.132 375.383C443.457 375.383 422.574 396.238 422.574 421.878C422.574 437.381 430.542 451.943 443.56 460.533L443.948 575.308C444.012 588.425 439.97 599.427 432.273 607.166C424.782 614.672 413.921 618.812 401.716 618.812L101.046 618.683C75.2936 618.683 58.0006 602.007 58.0006 577.179L58.2589 180.977C58.2589 160.302 76.0813 141.343 95.6473 141.227L149.502 141.098C158.116 154.06 172.672 161.992 188.169 161.992C213.831 161.992 234.727 141.136 234.727 115.496C234.727 89.8555 213.844 69 188.169 69C175.384 69 163.179 74.3654 154.332 83.8193L95.3632 83.9612C44.5562 84.1031 0 129.245 0 180.564L0.142064 582.196C0.284127 641.46 51.569 676.877 101.059 676.877H401.316C457.728 676.877 500.476 636.056 500.747 581.938L501.69 454.871C510.64 446.113 515.703 434.26 515.703 421.866C515.703 396.225 494.819 375.37 469.145 375.37L469.132 375.383Z" fill="black"/>
</g>
<defs>
<clipPath id="clip0_50_884">
<rect width="760" height="760" fill="white"/>
</clipPath>
</defs>
</svg>
