<svg width="800" height="800" viewBox="0 0 800 800" fill="none" xmlns="http://www.w3.org/2000/svg">
<path d="M499.51 564.892C464.92 545.662 444.2 497.952 431.12 461.432L388.95 343.672C381.91 324.022 372.98 305.712 359.72 290.422C349.97 279.172 335.09 278.162 324.7 288.982C306.1 308.342 294.1 341.242 284.66 367.392C271.33 404.312 255.78 439.072 234.88 472.282C231.17 478.172 224.96 484.762 218.9 487.082C206.33 491.882 194.12 485.432 187.28 475.982C179.73 465.542 180.13 452.852 187.55 441.342C202.2 418.622 214.06 395.282 224.13 370.022L249.26 306.992C257.02 287.522 267.63 269.762 280.88 253.782C296.68 234.712 318.94 224.842 342.89 225.002C366.85 225.162 388.71 236.742 404.34 256.582C418.32 274.322 429.43 293.822 437.39 315.442L477.58 424.672C487.16 450.712 503.21 496.032 524.22 512.732C532.67 519.442 544.07 519.082 551.9 511.512C572.03 492.042 590.6 440.662 600.55 412.872C605.66 398.602 618.95 391.742 633.12 394.612C646.45 397.312 658.29 411.212 654.02 426.582C645.1 458.702 632.59 489.182 616.61 518.292C592.55 562.122 546.53 591.012 499.52 564.882L499.51 564.892Z" fill="black"/>
<path d="M656.45 285.082C674.42 285.082 689 299.652 689 317.632C689 335.612 674.43 350.182 656.45 350.182C638.47 350.182 623.9 335.612 623.9 317.632C623.9 299.652 638.47 285.082 656.45 285.082Z" fill="black"/>
<path d="M142.55 506.082C160.52 506.082 175.1 520.652 175.1 538.632C175.1 556.612 160.53 571.182 142.55 571.182C124.57 571.182 110 556.612 110 538.632C110 520.652 124.57 506.082 142.55 506.082Z" fill="black"/>
</svg>
