<svg width="800" height="800" viewBox="0 0 800 800" fill="none" xmlns="http://www.w3.org/2000/svg">
<path d="M585.633 236.187C571.9 231.95 557.338 239.649 553.103 253.387L547.252 272.345C514.962 222.864 460.293 191.565 399.468 190.058C350.88 188.846 304.65 206.657 269.402 240.206C234.164 273.754 214.079 319.02 212.878 367.671C212.518 382.043 223.87 393.979 238.236 394.339C238.455 394.339 238.673 394.339 238.891 394.339C252.962 394.339 264.544 383.113 264.894 368.96C265.756 334.21 280.1 301.874 305.273 277.915C330.445 253.955 363.445 241.232 398.18 242.095C442.38 243.198 481.984 266.328 504.886 302.726L474.943 290.79C461.592 285.461 446.463 291.98 441.146 305.336C435.83 318.692 442.336 333.828 455.687 339.147L541.204 373.241C544.304 374.475 547.568 375.086 550.832 375.086C554.675 375.086 558.517 374.234 562.065 372.542C568.615 369.408 573.56 363.674 575.699 356.74L602.837 268.741C607.072 255.003 599.377 240.435 585.644 236.198L585.633 236.187Z" fill="black"/>
<path d="M567.796 405.686C553.441 405.271 541.499 416.683 541.139 431.055C540.276 465.804 525.932 498.14 500.76 522.1C475.587 546.06 442.576 558.804 407.852 557.92C361.797 556.773 320.675 531.754 298.308 492.68L326.941 506.603C339.866 512.894 355.432 507.51 361.72 494.58C367.997 481.65 362.615 466.077 349.69 459.787L266.891 419.522C260.363 416.344 252.798 416.039 246.041 418.692C239.273 421.335 233.935 426.697 231.293 433.457L197.792 519.239C192.563 532.627 199.167 547.72 212.55 552.951C215.662 554.163 218.86 554.742 222.015 554.742C232.418 554.742 242.232 548.462 246.249 538.175L253.617 519.304C285.012 573.602 342.355 608.351 406.553 609.945C408.103 609.989 409.653 610 411.203 610C458.121 610 502.506 592.276 536.619 559.798C571.857 526.25 591.943 480.984 593.143 432.332C593.504 417.961 582.151 406.024 567.785 405.664L567.796 405.686Z" fill="black"/>
</svg>
