<svg width="760" height="760" viewBox="0 0 760 760" fill="none" xmlns="http://www.w3.org/2000/svg">
<g clip-path="url(#clip0_50_838)">
<path d="M725.787 100.347C700.207 93.1139 673.081 106.257 665.192 129.71L654.293 162.075C594.144 77.6029 492.311 24.1718 379.01 21.5991C288.503 19.5297 202.388 49.9366 136.729 107.208C71.0906 164.48 33.6759 241.755 31.4392 324.81C30.7681 349.344 51.9156 369.721 78.6753 370.337C79.0819 370.337 79.4886 370.337 79.8953 370.337C106.106 370.337 127.68 351.171 128.331 327.01C129.937 267.688 156.656 212.486 203.547 171.583C250.437 130.68 311.907 108.961 376.61 110.433C458.943 112.316 532.715 151.802 575.376 213.94L519.599 193.563C494.731 184.465 466.548 195.595 456.645 218.395C446.743 241.196 458.862 267.035 483.73 276.114L643.027 334.318C648.802 336.425 654.882 337.469 660.962 337.469C668.12 337.469 675.277 336.015 681.886 333.125C694.086 327.774 703.298 317.987 707.283 306.148L757.834 155.922C765.723 132.469 751.388 107.6 725.807 100.366L725.787 100.347Z" fill="black"/>
<path d="M692.561 389.707C665.822 388.998 643.576 408.48 642.905 433.015C641.299 492.337 614.58 547.539 567.69 588.442C520.799 629.345 459.309 651.101 394.626 649.591C308.837 647.634 232.238 604.922 190.574 538.217L243.91 561.987C267.986 572.726 296.982 563.535 308.694 541.461C320.386 519.388 310.362 492.803 286.286 482.064L132.052 413.327C119.892 407.902 105.801 407.38 93.2141 411.911C80.607 416.422 70.6636 425.576 65.7428 437.116L3.33744 583.557C-6.40259 606.414 5.89957 632.179 30.8292 641.109C36.6244 643.178 42.5822 644.166 48.4588 644.166C67.8372 644.166 86.1175 633.446 93.6005 615.885L107.326 583.669C165.807 676.363 272.622 735.685 392.206 738.407C395.094 738.481 397.981 738.5 400.869 738.5C488.265 738.5 570.943 708.242 634.487 652.798C700.125 595.526 737.54 518.251 739.777 435.196C740.448 410.661 719.301 390.285 692.541 389.669L692.561 389.707Z" fill="black"/>
</g>
<defs>
<clipPath id="clip0_50_838">
<rect width="760" height="760" fill="white"/>
</clipPath>
</defs>
</svg>
