<svg width="800" height="800" viewBox="0 0 800 800" fill="none" xmlns="http://www.w3.org/2000/svg">
<path d="M555.808 436.001C542.398 355.221 570.268 278.421 456.908 223.001C458.278 196.071 450.838 171.561 430.198 157.731C409.978 144.211 383.358 144.211 361.788 159.301C343.448 172.081 334.128 196.601 338.008 222.691C212.698 285.451 260.368 379.221 238.688 444.391C229.048 473.201 180.118 490.071 195.208 535.231C199.508 548.121 214.278 565.091 232.508 565.511L316.328 566.981H358.558C358.558 566.771 358.448 566.671 358.448 566.461L439.128 566.771V566.981H480.508V566.671L561.818 566.041C581.828 565.831 598.068 546.971 602.158 532.511C615.048 486.201 561.818 472.371 555.848 436.021L555.808 436.001ZM394.778 189.151C404.418 188.001 415.418 195.861 413.738 208.641L381.678 209.061C378.218 200.891 385.658 190.201 394.778 189.151ZM249.038 522.431C245.478 522.431 238.868 519.601 237.618 518.031C235.938 515.931 239.818 510.071 242.018 508.181C287.068 470.571 289.268 425.941 287.908 368.311C286.338 307.541 328.348 259.561 387.338 253.581C444.858 247.821 503.638 289.201 506.458 349.761L509.918 419.961C511.908 461.761 532.758 487.431 563.668 521.691L249.038 522.421V522.431Z" fill="black"/>
<path d="M510.578 195.291C542.658 146.411 652.338 320.181 600.488 331.001C562.018 339.031 589.588 279.101 515.478 221.781C508.128 216.101 506.208 201.941 510.578 195.291Z" fill="black"/>
<path d="M282.998 221.241C206.318 289.391 236.828 341.001 198.238 330.571C150.108 317.571 255.088 152.461 286.408 192.621C292.398 200.311 290.908 214.211 283.008 221.241H282.998Z" fill="black"/>
<path d="M365.928 619.931C365.928 602.091 380.388 587.641 398.218 587.641C416.048 587.641 430.508 602.101 430.508 619.931C430.508 637.761 416.048 652.221 398.218 652.221C380.388 652.221 365.928 637.761 365.928 619.931Z" fill="black"/>
</svg>
