<svg width="800" height="800" viewBox="0 0 800 800" fill="none" xmlns="http://www.w3.org/2000/svg">
<path d="M581.45 245.543L436.37 171.313C414.94 160.333 388.75 158.853 366.89 170.153L218.33 246.493C198.27 256.843 177.79 278.063 177.68 301.503L177.05 492.303C177.05 518.063 192.15 539.814 214.85 551.434L369.11 630.203C389.6 640.653 412.93 640.023 434.79 628.833L589.48 549.434C607.54 540.144 622.32 519.023 622.32 497.803L622.95 312.604C623.06 283.464 607.22 258.753 581.46 245.553L581.45 245.543ZM379.88 206.903C393.82 199.303 411.98 202.253 425.71 209.123L555.9 276.383C536.79 288.313 522.21 295.603 503.53 304.363L347.15 224.643L379.88 206.903ZM378.61 590.823L234.05 517.543C221.7 511.733 214.83 499.383 215.79 485.443L216.32 309.854L360.02 381.123C371 387.673 377.86 398.223 379.34 411.323L378.6 590.823H378.61ZM388.12 351.553L242.62 278.383L302.81 246.493L459.29 326.313L414.73 349.863C408.08 353.243 394.04 354.513 388.12 351.553ZM562.55 520.184L419.69 592.723L419.27 412.693C419.17 400.973 424.66 391.683 431.21 385.453L475.98 363.283L528.35 337.623L583.78 309.643L584.31 488.723C583.89 503.193 575.23 513.743 562.56 520.193L562.55 520.184Z" fill="black"/>
<path d="M478.28 400.003C478.28 383.133 491.96 369.453 508.83 369.453C525.7 369.453 539.38 383.133 539.38 400.003C539.38 416.873 525.7 430.553 508.83 430.553C491.96 430.553 478.28 416.873 478.28 400.003Z" fill="black"/>
</svg>
