<svg width="760" height="760" viewBox="0 0 760 760" fill="none" xmlns="http://www.w3.org/2000/svg">
<path d="M670.14 133.026L438.156 14.3337C403.889 -3.22316 362.011 -5.58967 327.056 12.4789L89.5072 134.545C57.4311 151.095 24.6833 185.025 24.5074 222.506L23.5 527.592C23.5 568.782 47.6451 603.56 83.9426 622.14L330.606 748.092C363.37 764.801 400.675 763.794 435.629 745.901L682.98 618.942C711.858 604.087 735.492 570.317 735.492 536.386L736.499 240.254C736.675 193.66 711.347 154.149 670.156 133.042L670.14 133.026ZM347.827 71.2416C370.118 59.0893 399.156 63.8063 421.11 74.7913L629.285 182.339C598.728 201.415 575.415 213.072 545.545 227.079L295.492 99.6075L347.827 71.2416ZM345.797 685.124L114.644 567.95C94.8958 558.66 83.9107 538.913 85.4457 516.623L86.2932 235.857L316.071 349.817C333.628 360.29 344.597 377.159 346.964 398.106L345.781 685.124H345.797ZM361.003 302.535L128.347 185.537L224.592 134.545L474.805 262.176L403.553 299.832C392.92 305.237 370.469 307.268 361.003 302.535ZM639.919 572.172L411.484 688.162L410.813 400.297C410.653 381.557 419.431 366.702 429.905 356.74L501.492 321.291L585.233 280.261L673.866 235.521L674.713 521.867C674.042 545.005 660.194 561.874 639.935 572.188L639.919 572.172Z" fill="black"/>
<path d="M505.17 380.005C505.17 353.031 527.045 331.157 554.02 331.157C580.995 331.157 602.87 353.031 602.87 380.005C602.87 406.98 580.995 428.855 554.02 428.855C527.045 428.855 505.17 406.98 505.17 380.005Z" fill="black"/>
</svg>
