<svg width="800" height="800" viewBox="0 0 800 800" fill="none" xmlns="http://www.w3.org/2000/svg">
<path d="M665.531 470.707C641.045 428.82 595.251 406.764 545.644 412.669L497.109 340.026C532.964 290.243 525.846 222.21 480.097 180.841C434.617 139.714 365.605 139.714 319.552 180.877C273.071 222.424 265.936 289.242 302.183 340.571L255.273 412.776C204.041 406.47 153.113 432.893 130.743 477.505C106.489 525.903 117.598 584.075 157.757 618.976C193.468 650.009 239.405 658.192 283.787 641.433C321.142 627.319 348.789 593.463 358.166 550.558L442.109 550.808C451.843 596.813 484.759 632.884 528.588 645.337C539.643 648.481 550.886 650 562.013 650C597.028 650 630.82 634.912 653.672 607.667C686.561 568.451 691.214 514.692 665.522 470.733L665.531 470.707ZM641.509 530.906C641.509 574.883 605.735 610.668 561.772 610.668C517.809 610.668 482.035 574.883 482.035 530.906C482.035 486.929 517.809 451.152 561.772 451.152C605.735 451.152 641.509 486.938 641.509 530.906ZM399.807 349.817C355.701 349.817 319.82 313.915 319.82 269.795C319.82 225.676 355.701 189.783 399.807 189.783C443.913 189.783 479.794 225.676 479.794 269.795C479.794 313.915 443.913 349.817 399.807 349.817ZM468.39 368.254L506.352 424.97C470.587 444.908 449.503 473.386 442.011 511.87L357.603 511.754C348.941 471.662 328.929 444.024 294.923 425.202L331.733 368.442C375.615 396.742 425.07 396.688 468.381 368.263L468.39 368.254ZM318.329 530.933C318.329 574.936 282.537 610.731 238.556 610.731C194.576 610.731 158.784 574.927 158.784 530.933C158.784 486.938 194.576 451.134 238.556 451.134C282.537 451.134 318.329 486.938 318.329 530.933Z" fill="black"/>
</svg>
