<svg width="760" height="760" viewBox="0 0 760 760" fill="none" xmlns="http://www.w3.org/2000/svg">
<g clip-path="url(#clip0_57_17)">
<path d="M737.808 475.312C704.812 418.849 643.104 389.119 576.258 397.078L510.856 299.156C559.171 232.048 549.58 140.338 487.933 84.5737C426.646 29.1341 333.652 29.1341 271.595 84.6219C208.961 140.627 199.346 230.699 248.19 299.89L184.978 397.223C115.942 388.721 47.3156 424.34 17.1718 484.476C-15.5111 549.718 -0.541484 628.133 53.573 675.179C101.695 717.012 163.595 728.042 223.401 705.452C273.737 686.426 310.993 640.789 323.628 582.953L436.742 583.29C449.859 645.304 494.214 693.928 553.274 710.714C568.172 714.953 583.322 717 598.316 717C645.499 717 691.033 696.662 721.827 659.935C766.146 607.072 772.416 534.605 737.796 475.349L737.808 475.312ZM705.438 556.461C705.438 615.742 657.232 663.981 597.991 663.981C538.75 663.981 490.544 615.742 490.544 556.461C490.544 497.18 538.75 448.953 597.991 448.953C657.232 448.953 705.438 497.192 705.438 556.461ZM379.74 312.353C320.307 312.353 271.956 263.958 271.956 204.484C271.956 145.011 320.307 96.6274 379.74 96.6274C439.173 96.6274 487.524 145.011 487.524 204.484C487.524 263.958 439.173 312.353 379.74 312.353ZM472.157 337.207L523.311 413.659C475.117 440.536 446.706 478.925 436.61 530.8L322.87 530.644C311.197 476.601 284.23 439.344 238.407 413.972L288.009 337.46C347.141 375.608 413.783 375.536 472.145 337.219L472.157 337.207ZM269.947 556.497C269.947 615.814 221.717 664.065 162.452 664.065C103.187 664.065 54.9568 615.802 54.9568 556.497C54.9568 497.192 103.187 448.929 162.452 448.929C221.717 448.929 269.947 497.192 269.947 556.497Z" fill="black"/>
</g>
<defs>
<clipPath id="clip0_57_17">
<rect width="760" height="760" fill="white"/>
</clipPath>
</defs>
</svg>
