<svg width="800" height="800" viewBox="0 0 800 800" fill="none" xmlns="http://www.w3.org/2000/svg">
<path d="M611.52 537.14L468.281 537.318C461.793 537.318 450.961 541.449 446.065 545.385C418.607 567.44 381.954 567.538 354.397 545.714C348.603 541.129 336.988 537.478 329.476 537.451L187.457 537.033C168.231 536.979 148.125 521.477 148.116 500L148 235.92C147.982 192.201 204.875 196.555 204.412 197.16C208.64 191.711 206.468 150.921 241.688 150.823C292.351 150.689 365.639 167.153 399.764 208.798C432.26 167.402 508.459 151.286 559.006 150.013C590.265 149.22 591.146 186.048 593.825 195.602C594.555 198.202 603.429 198.523 606.384 198.166C631.431 195.121 651.706 212.52 651.733 238.342L652 496.439C652.027 518.378 634.501 537.113 611.511 537.14H611.52ZM382.541 483.385L381.375 247.852C369.502 202.538 284.536 183.635 241.404 185.558L241.092 426.407C241.092 431.055 241.76 438.659 244.67 440.12C247.002 441.286 253.562 442.8 256.463 442.987C302.435 445.854 343.859 457.99 382.532 483.385H382.541ZM417.557 483.296C461.294 455.168 505.451 444.349 558.027 441.616L558.596 184.961C522.691 181.186 418.091 208.13 418.01 247.887L417.557 483.296ZM238.564 475.158C220.024 473.475 207.216 457.883 207.163 438.419L206.611 234.371C199.713 231.691 190.403 231.967 182.232 236.766L182.259 494.132C182.259 496.688 188.854 501.861 191.72 501.861H345.871C312.787 483.501 276.098 478.568 238.564 475.158ZM455.34 501.514L618.088 501.202L618.017 236.606C610.639 231.717 599.726 231.263 593.131 234.798L592.659 437.395C592.606 459.112 577.466 475.656 556.069 475.772C520.19 478.799 485.896 484.311 455.34 501.514Z" fill="black"/>
<path d="M372.813 622.798C372.813 607.776 384.989 595.595 400.004 595.595C415.02 595.595 427.196 607.776 427.196 622.798C427.196 637.819 415.02 650 400.004 650C384.989 650 372.813 637.819 372.813 622.798Z" fill="black"/>
</svg>
