<svg width="800" height="800" viewBox="0 0 800 800" fill="none" xmlns="http://www.w3.org/2000/svg">
<path d="M309.736 506.18C312.965 506.638 316.202 506.854 319.414 506.854C341.341 506.854 362.465 496.536 377.322 478.164C388.889 463.849 397.393 447.919 403.306 429.477L419.665 378.407C428.013 352.152 433.71 341.653 437.388 337.845C444.173 344.96 451.899 365.647 454.619 372.925L457.019 379.374C465.608 402.47 475.346 428.648 491.714 445.407C500.933 454.852 512.993 460.101 525.666 460.196C538.71 460.455 550.58 455.197 560.007 445.83C572.3 433.613 579.033 420.48 586.155 406.589C590.549 398.024 595.09 389.174 601.15 380.247C603.559 376.698 607.288 374.479 612.243 373.642C623.88 371.682 632.124 362.055 632.28 350.244C632.409 339.546 625.201 327.986 612.899 327.165C595.47 326.043 578.144 334.271 565.325 349.864C556.683 360.363 550.899 372.131 545.625 382.837C532.235 410.059 527.047 412.667 526.46 412.909C523.568 412.304 516.463 401.486 513.632 394.328L495.564 348.534C487.811 328.875 479.792 308.542 460.705 296.213C442.68 284.566 419.717 287.76 404.834 303.949C396.97 312.496 390.392 323.151 384.72 336.516C378.099 352.109 373.61 367.244 369.259 381.904C365.624 394.138 361.869 406.796 356.836 419.988C352.701 430.824 347.073 440.641 340.097 449.18C334.581 455.94 327.131 459.376 317.955 459.385C304.073 459.393 293.93 467.423 292.126 479.838C291.202 486.193 293.015 493.316 296.856 498.436C300.119 502.787 304.574 505.472 309.745 506.189L309.736 506.18Z" fill="black"/>
<path d="M245.708 510.722C261.764 510.722 274.826 497.667 274.826 481.626C274.826 465.584 261.764 452.521 245.708 452.521C229.651 452.521 216.59 465.575 216.59 481.626C216.59 497.676 229.651 510.722 245.708 510.722Z" fill="black"/>
<path d="M650.434 580.233L172.761 580.104L174.522 199.885C174.583 187.383 165.303 176.245 153.83 175.045C148.616 174.605 141.381 177.436 136.141 182.159C131.48 186.355 128.899 191.501 128.881 196.647L127.5 596.474C127.474 603.312 131.437 611.902 137.367 617.851C141.917 622.418 146.967 624.827 151.957 624.827L648.224 625C655.338 625 661.7 622.539 666.128 618.076C670.289 613.888 672.543 608.164 672.499 601.956C672.422 591.915 662.77 580.242 650.451 580.242L650.434 580.233Z" fill="black"/>
</svg>
