<svg width="760" height="760" viewBox="0 0 760 760" fill="none" xmlns="http://www.w3.org/2000/svg">
<g clip-path="url(#clip0_50_848)">
<path d="M255.327 729.911C270.755 745.511 293.106 754.47 316.646 754.5H316.751C339.569 754.5 361.032 746.053 375.677 731.327L642.31 462.975C668.319 436.805 681.775 400.984 679.231 364.711L672.232 265.558C719.493 231.785 755.992 169.688 759.68 116.024C762.088 81.0304 750.875 51.3223 727.229 30.1517C706.85 11.9022 680.51 3.56043 651.07 5.87926C598.18 10.1555 545.365 47.0912 515.022 82.9578L400.075 67.5842C357.179 61.8624 318.031 76.4379 283.669 110.934L24.6517 371.08C-9.13834 405.019 -8.05464 463.683 27.0599 499.158L255.327 729.926V729.911ZM599.459 105.529C617.716 91.0586 638.111 81.7532 658.972 78.4858C666.317 77.3414 673.316 79.2687 678.614 83.9516C684.363 89.0259 687.509 96.8105 687.238 105.288C686.455 130.057 677.455 153.396 660.462 174.838C648.21 146.289 629.607 125.179 599.474 105.529H599.459ZM437.282 203.582C421.147 217.073 411.875 236.392 411.168 257.954C410.446 280.691 419.401 303.217 435.16 318.214C450.994 333.286 471.614 341.041 492.881 340.122C514.405 339.173 534.934 329.311 549.218 313.079C579.095 279.125 574.248 230.67 537.869 197.303C536.756 193.96 537.102 185.453 540.383 176.916C542.58 171.149 545.064 168.212 546.313 167.309C571.66 168.378 590.895 193.93 593.108 217.766L606.157 357.905C608.354 381.62 602.68 398.921 587.689 414.023L339.75 663.99C332.947 670.872 323.088 676.804 317.76 677.226C309.512 678.069 300.24 669.291 293.783 662.786L82.584 449.318C73.764 440.389 73.1017 425.497 81.1542 417.426L343.422 154.269C353.176 144.467 368.708 139.98 381.351 139.98C383.609 139.98 385.776 140.115 387.793 140.402L471.659 152.071C467.098 174.702 455.343 188.449 437.252 203.582H437.282ZM485.205 259.957L485.371 259.776L490.006 263.781L489.841 263.962L485.205 259.957Z" fill="black"/>
<path d="M319.385 378.548C292.338 378.548 270.409 400.487 270.409 427.545C270.409 454.603 292.338 476.557 319.385 476.557C346.433 476.557 368.377 454.618 368.377 427.545C368.377 400.472 346.448 378.548 319.385 378.548Z" fill="black"/>
</g>
<defs>
<clipPath id="clip0_50_848">
<rect width="760" height="760" fill="white"/>
</clipPath>
</defs>
</svg>
