<svg width="800" height="800" viewBox="0 0 800 800" fill="none" xmlns="http://www.w3.org/2000/svg">
<path d="M317.168 632.386C327.418 642.746 342.268 648.696 357.908 648.716H357.978C373.138 648.716 387.398 643.106 397.128 633.326L574.278 455.106C591.558 437.726 600.498 413.936 598.808 389.846L594.158 323.996C625.558 301.566 649.808 260.326 652.258 224.686C653.858 201.446 646.408 181.716 630.698 167.656C617.158 155.536 599.658 149.996 580.098 151.536C544.958 154.376 509.868 178.906 489.708 202.726L413.338 192.516C384.838 188.716 358.828 198.396 335.998 221.306L163.908 394.076C141.458 416.616 142.178 455.576 165.508 479.136L317.168 632.396V632.386ZM545.808 217.716C557.938 208.106 571.488 201.926 585.348 199.756C590.228 198.996 594.878 200.276 598.398 203.386C602.218 206.756 604.308 211.926 604.128 217.556C603.608 234.006 597.628 249.506 586.338 263.746C578.198 244.786 565.838 230.766 545.818 217.716H545.808ZM438.058 282.836C427.338 291.796 421.178 304.626 420.708 318.946C420.228 334.046 426.178 349.006 436.648 358.966C447.168 368.976 460.868 374.126 474.998 373.516C489.298 372.886 502.938 366.336 512.428 355.556C532.278 333.006 529.058 300.826 504.888 278.666C504.148 276.446 504.378 270.796 506.558 265.126C508.018 261.296 509.668 259.346 510.498 258.746C527.338 259.456 540.118 276.426 541.588 292.256L550.258 385.326C551.718 401.076 547.948 412.566 537.988 422.596L373.258 588.606C368.738 593.176 362.188 597.116 358.648 597.396C353.168 597.956 347.008 592.126 342.718 587.806L202.398 446.036C196.538 440.106 196.098 430.216 201.448 424.856L375.698 250.086C382.178 243.576 392.498 240.596 400.898 240.596C402.398 240.596 403.838 240.686 405.178 240.876L460.898 248.626C457.868 263.656 450.058 272.786 438.038 282.836H438.058ZM469.898 320.276L470.008 320.156L473.088 322.816L472.978 322.936L469.898 320.276Z" fill="black"/>
<path d="M359.728 399.036C341.758 399.036 327.188 413.606 327.188 431.576C327.188 449.546 341.758 464.126 359.728 464.126C377.698 464.126 392.278 449.556 392.278 431.576C392.278 413.596 377.708 399.036 359.728 399.036Z" fill="black"/>
</svg>
