<svg width="800" height="800" viewBox="0 0 800 800" fill="none" xmlns="http://www.w3.org/2000/svg">
<path d="M500.01 564.987C465.42 545.757 444.7 498.047 431.62 461.527L389.45 343.767C382.41 324.117 373.48 305.807 360.22 290.517C350.47 279.267 335.59 278.257 325.2 289.077C306.6 308.437 294.6 341.337 285.16 367.487C271.83 404.407 256.28 439.167 235.38 472.377C231.67 478.267 225.46 484.857 219.4 487.177C206.83 491.977 194.62 485.527 187.78 476.077C180.23 465.637 180.63 452.947 188.05 441.437C202.7 418.717 214.56 395.377 224.63 370.117L249.76 307.087C257.52 287.617 268.13 269.857 281.38 253.877C297.18 234.807 319.44 224.937 343.39 225.097C367.35 225.257 389.21 236.837 404.84 256.677C418.82 274.417 429.93 293.917 437.89 315.537L478.08 424.767C487.66 450.807 503.71 496.127 524.72 512.827C533.17 519.537 544.57 519.177 552.4 511.607C572.53 492.137 591.1 440.757 601.05 412.967C606.16 398.697 619.45 391.837 633.62 394.707C646.95 397.407 658.79 411.307 654.52 426.677C645.6 458.797 633.09 489.277 617.11 518.387C593.05 562.217 547.03 591.107 500.02 564.977L500.01 564.987Z" fill="black"/>
<path d="M656.95 285.177C674.92 285.177 689.5 299.747 689.5 317.727C689.5 335.707 674.93 350.277 656.95 350.277C638.97 350.277 624.4 335.707 624.4 317.727C624.4 299.747 638.97 285.177 656.95 285.177Z" fill="black"/>
<path d="M143.05 506.177C161.02 506.177 175.6 520.747 175.6 538.727C175.6 556.707 161.03 571.277 143.05 571.277C125.07 571.277 110.5 556.707 110.5 538.727C110.5 520.747 125.07 506.177 143.05 506.177Z" fill="black"/>
</svg>
