<svg width="760" height="760" viewBox="0 0 760 760" fill="none" xmlns="http://www.w3.org/2000/svg">
<g clip-path="url(#clip0_50_854)">
<path d="M511.274 596.485C465.871 571.253 438.674 508.651 421.505 460.731L366.152 306.214C356.911 280.43 345.19 256.405 327.784 236.343C314.987 221.581 295.455 220.256 281.817 234.453C257.402 259.856 241.651 303.025 229.26 337.338C211.763 385.782 191.352 431.392 163.918 474.968C159.049 482.697 150.897 491.344 142.943 494.388C126.444 500.686 110.417 492.223 101.438 479.823C91.5282 466.124 92.0532 449.473 101.793 434.371C121.022 404.559 136.59 373.933 149.808 340.789L182.794 258.085C192.98 232.537 206.906 209.234 224.298 188.266C245.038 163.243 274.256 150.293 305.693 150.503C337.143 150.712 365.837 165.907 386.353 191.94C404.703 215.217 419.286 240.804 429.735 269.172L482.488 412.497C495.063 446.665 516.131 506.131 543.708 528.044C554.8 536.849 569.764 536.376 580.042 526.443C606.464 500.896 630.839 433.478 643.9 397.014C650.607 378.29 668.052 369.288 686.651 373.054C704.149 376.597 719.69 394.836 714.085 415.003C702.377 457.149 685.956 497.143 664.98 535.34C633.399 592.851 572.993 630.758 511.287 596.472L511.274 596.485Z" fill="black"/>
<path d="M717.275 229.336C740.862 229.336 760 248.454 760 272.046C760 295.638 740.875 314.756 717.275 314.756C693.674 314.756 674.549 295.638 674.549 272.046C674.549 248.454 693.674 229.336 717.275 229.336Z" fill="black"/>
<path d="M42.7254 519.318C66.3129 519.318 85.4508 538.436 85.4508 562.029C85.4508 585.621 66.3261 604.739 42.7254 604.739C19.1247 604.739 0 585.621 0 562.029C0 538.436 19.1247 519.318 42.7254 519.318Z" fill="black"/>
</g>
<defs>
<clipPath id="clip0_50_854">
<rect width="760" height="760" fill="white"/>
</clipPath>
</defs>
</svg>
