<svg width="760" height="760" viewBox="0 0 760 760" fill="none" xmlns="http://www.w3.org/2000/svg">
<path d="M477.557 760C469.4 760 461.142 758.158 453.353 754.25C426.574 740.845 415.719 708.246 429.108 681.417L552.539 434.27H423.385C403.392 434.27 385.014 423.26 375.57 405.6C366.125 387.959 367.168 366.533 378.268 349.875L595.162 24.1861C611.761 -0.759889 645.43 -7.51308 670.349 9.12439C695.268 25.7619 701.994 59.4461 685.394 84.392L524.697 325.686H640.278C659.065 325.686 676.522 335.427 686.396 351.431C696.27 367.434 697.169 387.407 688.767 404.249L526.087 729.938C516.581 748.97 497.427 759.959 477.536 759.959L477.557 760Z" fill="black"/>
<path d="M271.559 325.727H206.491C176.543 325.727 152.257 301.416 152.257 271.436C152.257 241.455 176.543 217.144 206.491 217.144H271.559C301.507 217.144 325.793 241.455 325.793 271.436C325.793 301.416 301.507 325.727 271.559 325.727Z" fill="black"/>
<path d="M293.248 542.853H119.734C89.7855 542.853 65.5 518.542 65.5 488.562C65.5 458.581 89.7855 434.27 119.734 434.27H293.248C323.196 434.27 347.482 458.581 347.482 488.562C347.482 518.542 323.196 542.853 293.248 542.853Z" fill="black"/>
</svg>
