<svg width="800" height="800" viewBox="0 0 800 800" fill="none" xmlns="http://www.w3.org/2000/svg">
<path d="M454.284 611.5C449.746 611.5 445.15 610.475 440.816 608.299C425.915 600.839 419.875 582.695 427.326 567.762L496.008 430.206H424.141C413.016 430.206 402.79 424.078 397.535 414.248C392.28 404.43 392.86 392.505 399.036 383.233L519.724 201.961C528.961 188.077 547.695 184.318 561.561 193.578C575.427 202.839 579.17 221.586 569.933 235.471L480.515 369.77H544.829C555.282 369.77 564.997 375.192 570.491 384.099C575.985 393.006 576.485 404.122 571.81 413.496L481.288 594.768C475.999 605.361 465.341 611.477 454.273 611.477L454.284 611.5Z" fill="black"/>
<path d="M339.659 369.793H303.453C286.789 369.793 273.275 356.262 273.275 339.575C273.275 322.889 286.789 309.358 303.453 309.358H339.659C356.324 309.358 369.837 322.889 369.837 339.575C369.837 356.262 356.324 369.793 339.659 369.793Z" fill="black"/>
<path d="M351.728 490.641H255.178C238.513 490.641 225 477.109 225 460.423C225 443.737 238.513 430.206 255.178 430.206H351.728C368.392 430.206 381.906 443.737 381.906 460.423C381.906 477.109 368.392 490.641 351.728 490.641Z" fill="black"/>
</svg>
