<svg width="760" height="760" viewBox="0 0 760 760" fill="none" xmlns="http://www.w3.org/2000/svg">
<path d="M376.782 407.072C489.049 407.072 580.4 315.762 580.4 203.529C580.4 91.2956 489.063 0 376.782 0C264.501 0 173.164 91.2956 173.164 203.529C173.164 315.762 264.501 407.072 376.782 407.072ZM377.129 73.0532C448.756 73.0532 507.036 131.31 507.036 202.918C507.036 274.526 448.756 332.768 377.129 332.768C305.502 332.768 247.222 274.512 247.222 202.918C247.222 131.323 305.502 73.0532 377.129 73.0532Z" fill="black"/>
<path d="M551.385 689.378L376.754 688.961L188.762 689.406C179.484 689.406 166.261 684.529 163.803 678.527C157.636 663.189 163.997 643.779 169.331 630.538C197.943 559.416 282.098 519.194 348.253 511.914C356.962 510.872 366.087 510.233 376.574 509.927C387.477 510.247 396.602 510.886 405.38 511.914C470.965 519.139 554.288 558.861 583.497 628.982C598.233 617.2 616.859 610.115 637.137 610.115C647.749 610.115 657.874 612.143 667.277 615.672C664.486 607.711 661.041 599.611 656.846 591.344C633.54 545.3 594.136 507.301 542.871 481.445C516.564 468.274 488.174 454.713 455.826 446.377C431.686 440.278 405.172 436.735 376.546 435.846C348.378 436.735 321.863 440.278 297.682 446.391C265.362 454.727 236.986 468.274 210.652 481.459C159.4 507.301 119.996 545.3 96.6896 591.344C79.4251 625.356 74.0916 656.964 80.8141 685.238C91.0505 729.1 132.26 759.722 181.026 759.722L376.768 760L572.483 759.722C574.566 759.722 576.538 759.361 578.594 759.25C561.677 743.508 551.024 721.125 551.024 696.242C551.024 693.921 551.19 691.657 551.371 689.378H551.385Z" fill="black"/>
<path d="M674.847 672.122C666.875 659.673 652.999 651.379 637.137 651.379C612.373 651.379 592.289 671.469 592.289 696.242C592.289 721.014 610.748 739.187 634.054 740.799C635.096 740.868 636.082 741.118 637.137 741.118C661.902 741.118 682 721.028 682 696.256C682 687.35 679.333 679.111 674.861 672.136L674.847 672.122Z" fill="black"/>
</svg>
