<svg width="800" height="800" viewBox="0 0 800 800" fill="none" xmlns="http://www.w3.org/2000/svg">
<path d="M397.885 417.81C471.676 417.81 531.72 357.738 531.72 283.901C531.72 210.063 471.686 150 397.885 150C324.084 150 264.05 210.063 264.05 283.901C264.05 357.738 324.084 417.81 397.885 417.81ZM398.113 198.061C445.193 198.061 483.499 236.388 483.499 283.498C483.499 330.609 445.193 368.927 398.113 368.927C351.033 368.927 312.727 330.6 312.727 283.498C312.727 236.397 351.033 198.061 398.113 198.061Z" fill="black"/>
<path d="M512.649 603.538L397.867 603.264L274.302 603.557C268.204 603.557 259.513 600.348 257.897 596.4C253.844 586.308 258.025 573.539 261.53 564.828C280.337 518.037 335.651 491.575 379.133 486.785C384.857 486.1 390.855 485.679 397.748 485.478C404.914 485.689 410.912 486.109 416.682 486.785C459.79 491.539 514.557 517.672 533.755 563.804C543.442 556.053 555.684 551.391 569.013 551.391C575.987 551.391 582.643 552.726 588.823 555.047C586.988 549.81 584.724 544.481 581.967 539.042C566.648 508.75 540.748 483.751 507.052 466.74C489.762 458.075 471.101 449.154 449.839 443.669C433.973 439.657 416.545 437.326 397.73 436.741C379.215 437.326 361.788 439.657 345.894 443.678C324.65 449.163 305.999 458.075 288.69 466.749C255.003 483.751 229.103 508.75 213.784 539.042C202.437 561.418 198.931 582.213 203.35 600.814C210.078 629.671 237.164 649.817 269.217 649.817L397.876 650L526.516 649.817C527.885 649.817 529.182 649.58 530.533 649.506C519.413 639.15 512.411 624.425 512.411 608.054C512.411 606.527 512.521 605.037 512.639 603.538H512.649Z" fill="black"/>
<path d="M593.798 592.186C588.558 583.996 579.438 578.539 569.013 578.539C552.735 578.539 539.534 591.756 539.534 608.054C539.534 624.351 551.667 636.307 566.986 637.368C567.671 637.413 568.319 637.578 569.013 637.578C585.29 637.578 598.5 624.361 598.5 608.063C598.5 602.204 596.747 596.783 593.808 592.195L593.798 592.186Z" fill="black"/>
</svg>
